<svg width="32" height="32" viewBox="0 0 32 32" fill="none" xmlns="http://www.w3.org/2000/svg">
<g clip-path="url(#clip0_129_455)">
<mask id="mask0_129_455" style="mask-type:luminance" maskUnits="userSpaceOnUse" x="0" y="0" width="32" height="32">
<path d="M32 0H0V32H32V0Z" fill="white"/>
</mask>
<g mask="url(#mask0_129_455)">
<path d="M27.107 5.69963C25.0084 4.71771 22.7883 4.02002 20.5052 3.625C20.2209 4.13912 19.8886 4.83062 19.6595 5.38075C17.198 5.01062 14.7591 5.01062 12.3429 5.38075C12.1139 4.83075 11.7741 4.13912 11.4871 3.625C9.20186 4.02021 6.97982 4.71967 4.88024 5.70475C0.702241 12.0184 -0.430384 18.175 0.135866 24.2445C2.90699 26.3139 5.59249 27.571 8.23274 28.3936C8.88891 27.4913 9.46895 26.5359 9.96687 25.5375C9.0189 25.1766 8.10503 24.7318 7.23612 24.2085C7.46478 24.039 7.68806 23.8624 7.90562 23.6789C13.1709 26.1416 18.8919 26.1416 24.0944 23.6789C24.3129 23.8612 24.5361 24.0378 24.7637 24.2085C23.8934 24.7332 22.9779 25.1789 22.028 25.5401C22.5287 26.5426 23.1077 27.4989 23.7621 28.3961C26.4049 27.5736 29.0929 26.3165 31.864 24.2445C32.5285 17.2085 30.729 11.1084 27.107 5.69963ZM10.6842 20.5119C9.10362 20.5119 7.80737 19.0363 7.80737 17.2394C7.80737 15.4425 9.07599 13.9644 10.6842 13.9644C12.2926 13.9644 13.5887 15.4399 13.5611 17.2394C13.5636 19.0363 12.2926 20.5119 10.6842 20.5119ZM21.3156 20.5119C19.735 20.5119 18.4389 19.0363 18.4389 17.2394C18.4389 15.4425 19.7074 13.9644 21.3156 13.9644C22.924 13.9644 24.2201 15.4399 24.1925 17.2394C24.1925 19.0363 22.924 20.5119 21.3156 20.5119Z" fill="#7289DA"/>
</g>
</g>
<defs>
<clipPath id="clip0_129_455">
<rect width="32" height="32" fill="white"/>
</clipPath>
</defs>
</svg>
