<svg width="24" height="24" viewBox="0 0 24 24" fill="none" xmlns="http://www.w3.org/2000/svg">
<g clip-path="url(#clip0_138_44)">
<path fill-rule="evenodd" clip-rule="evenodd" d="M2.86078 2.82874C3.54417 1.12028 5.19886 -1.78814e-07 7.03893 0L16.9612 8.49366e-07C18.8013 1.02818e-06 20.4559 1.12028 21.1393 2.82874L23.6782 9.17593C23.8778 9.67493 24.0484 10.3118 23.9177 10.9858C23.5156 13.0593 21.6915 14.625 19.5001 14.625C17.9348 14.625 16.5562 13.8259 15.7501 12.6133C14.9439 13.8259 13.5653 14.625 12.0001 14.625C10.4348 14.625 9.05625 13.8259 8.25006 12.6133C7.44386 13.8259 6.06528 14.625 4.50005 14.625C2.30861 14.625 0.484485 13.0593 0.0824318 10.9858C-0.0482537 10.3118 0.12231 9.67493 0.32191 9.17593L2.86078 2.82874ZM9.00006 10.125C9.00006 11.7819 10.3432 13.125 12.0001 13.125C13.6569 13.125 15.0001 11.7819 15.0001 10.125C15.0001 9.71079 15.3358 9.375 15.7501 9.375C16.1643 9.375 16.5001 9.71079 16.5001 10.125C16.5001 11.7819 17.8432 13.125 19.5001 13.125C20.9596 13.125 22.1772 12.0819 22.4451 10.7002C22.496 10.4375 22.4402 10.1199 22.2855 9.73301L19.7466 3.38583C19.291 2.24685 18.1879 1.5 16.9612 1.5L7.03893 1.5C5.81221 1.5 4.70909 2.24685 4.2535 3.38583L1.71462 9.73301C1.55986 10.1199 1.50406 10.4375 1.555 10.7002C1.82292 12.0819 3.04049 13.125 4.50005 13.125C6.15691 13.125 7.50006 11.7819 7.50006 10.125C7.50006 9.71079 7.83584 9.375 8.25006 9.375C8.66427 9.375 9.00006 9.71079 9.00006 10.125Z" fill="black"/>
<path fill-rule="evenodd" clip-rule="evenodd" d="M4.5 15C4.91421 15 5.25 15.3358 5.25 15.75V21C5.25 21.8284 5.92157 22.5 6.75 22.5H17.25C18.0784 22.5 18.75 21.8284 18.75 21V15.75C18.75 15.3358 19.0858 15 19.5 15C19.9142 15 20.25 15.3358 20.25 15.75V21C20.25 22.6569 18.9069 24 17.25 24H6.75C5.09315 24 3.75 22.6569 3.75 21V15.75C3.75 15.3358 4.08579 15 4.5 15Z" fill="black"/>
<path fill-rule="evenodd" clip-rule="evenodd" d="M5.625 6.375C5.625 5.96079 5.96079 5.625 6.375 5.625H17.625C18.0392 5.625 18.375 5.96079 18.375 6.375C18.375 6.78921 18.0392 7.125 17.625 7.125H6.375C5.96079 7.125 5.625 6.78921 5.625 6.375Z" fill="black"/>
</g>
<defs>
<clipPath id="clip0_138_44">
<rect width="24" height="24" fill="white"/>
</clipPath>
</defs>
</svg>
