<svg width="24" height="24" viewBox="0 0 24 24" fill="none" xmlns="http://www.w3.org/2000/svg">
<g clip-path="url(#clip0_138_34)">
<path fill-rule="evenodd" clip-rule="evenodd" d="M8.58541 1.75643C8.37426 1.65085 8.12574 1.65085 7.91459 1.75643L1.91459 4.75643C1.6605 4.88347 1.5 5.14317 1.5 5.42725V20.8231C1.5 21.3807 2.08673 21.7433 2.58541 21.494L7.24377 19.1648C7.87721 18.8481 8.62279 18.8481 9.25623 19.1648L15.4146 22.244C15.6257 22.3495 15.8743 22.3495 16.0854 22.244L22.0854 19.244C22.3395 19.1169 22.5 18.8572 22.5 18.5731V3.17725C22.5 2.61971 21.9133 2.25709 21.4146 2.50643L16.7562 4.83561C16.1228 5.15232 15.3772 5.15232 14.7438 4.8356L8.58541 1.75643ZM7.24377 0.414785C7.87721 0.0980668 8.62279 0.0980662 9.25623 0.414785L15.4146 3.49396C15.6257 3.59954 15.8743 3.59954 16.0854 3.49396L20.7438 1.16479C22.2398 0.416773 24 1.50463 24 3.17725V18.5731C24 19.4254 23.5185 20.2045 22.7562 20.5856L16.7562 23.5856C16.1228 23.9023 15.3772 23.9023 14.7438 23.5856L8.58541 20.5064C8.37426 20.4009 8.12574 20.4009 7.91459 20.5064L3.25623 22.8356C1.76021 23.5836 0 22.4958 0 20.8231V5.42725C0 4.57501 0.481505 3.79592 1.24377 3.41478L7.24377 0.414785Z" fill="black"/>
<path fill-rule="evenodd" clip-rule="evenodd" d="M8.25 0C8.66421 0 9 0.335786 9 0.75V19.5C9 19.9142 8.66421 20.25 8.25 20.25C7.83579 20.25 7.5 19.9142 7.5 19.5V0.75C7.5 0.335786 7.83579 0 8.25 0Z" fill="black"/>
<path fill-rule="evenodd" clip-rule="evenodd" d="M15.75 3.75C16.1642 3.75 16.5 4.08579 16.5 4.5V23.25C16.5 23.6642 16.1642 24 15.75 24C15.3358 24 15 23.6642 15 23.25V4.5C15 4.08579 15.3358 3.75 15.75 3.75Z" fill="black"/>
</g>
<defs>
<clipPath id="clip0_138_34">
<rect width="24" height="24" fill="white"/>
</clipPath>
</defs>
</svg>
