<svg width="24" height="24" viewBox="0 0 24 24" fill="none" xmlns="http://www.w3.org/2000/svg">
<g clip-path="url(#clip0_138_27)">
<path fill-rule="evenodd" clip-rule="evenodd" d="M3.51199 2.09226C4.33704 0.789549 5.77167 0 7.31367 0H16.686C18.228 0 19.6627 0.78955 20.4877 2.09227L23.8835 7.45397C24.1051 7.80391 24.0011 8.26725 23.6511 8.48888C23.3012 8.7105 22.8379 8.60649 22.6162 8.25655L19.2205 2.89484C18.6705 2.02637 17.714 1.5 16.686 1.5H7.31367C6.28567 1.5 5.32925 2.02637 4.77922 2.89484L1.38347 8.25655C1.16184 8.60649 0.698498 8.7105 0.348563 8.48888C-0.00137259 8.26725 -0.105388 7.80391 0.116238 7.45397L3.51199 2.09226Z" fill="black"/>
<path fill-rule="evenodd" clip-rule="evenodd" d="M0.307539 7.24998C0.641971 7.00558 1.1112 7.07858 1.35559 7.41301L12.0001 21.9791L22.6445 7.41301C22.8889 7.07858 23.3581 7.00558 23.6926 7.24998C24.027 7.49437 24.1 7.9636 23.8556 8.29803L12.6056 23.6928C12.4644 23.886 12.2394 24.0003 12.0001 24.0003C11.7607 24.0003 11.5357 23.886 11.3945 23.6928L0.144508 8.29803C-0.0998847 7.9636 -0.0268932 7.49437 0.307539 7.24998Z" fill="black"/>
<path fill-rule="evenodd" clip-rule="evenodd" d="M12.8032 0.0727173C13.1773 -0.105004 13.6247 0.054233 13.8024 0.428383L17.1774 7.53365C17.2564 7.69984 17.2714 7.88926 17.2198 8.06586L12.7198 23.4606C12.6036 23.8582 12.1871 24.0863 11.7895 23.9701C11.3919 23.8538 11.1639 23.4373 11.2801 23.0398L15.6999 7.9192L12.4475 1.07197C12.2698 0.697818 12.429 0.250438 12.8032 0.0727173Z" fill="black"/>
<path fill-rule="evenodd" clip-rule="evenodd" d="M11.1968 0.0727173C11.5709 0.250438 11.7302 0.697818 11.5525 1.07197L8.30002 7.9192L12.7199 23.0398C12.8361 23.4373 12.608 23.8538 12.2104 23.9701C11.8128 24.0863 11.3963 23.8582 11.2801 23.4606L6.78012 8.06586C6.7285 7.88926 6.7436 7.69984 6.82254 7.53365L10.1975 0.428383C10.3753 0.054233 10.8226 -0.105004 11.1968 0.0727173Z" fill="black"/>
<path fill-rule="evenodd" clip-rule="evenodd" d="M0 7.85547C0 7.44126 0.335786 7.10547 0.75 7.10547H23.25C23.6642 7.10547 24 7.44126 24 7.85547C24 8.26968 23.6642 8.60547 23.25 8.60547H0.75C0.335786 8.60547 0 8.26968 0 7.85547Z" fill="black"/>
</g>
<defs>
<clipPath id="clip0_138_27">
<rect width="24" height="24" fill="white"/>
</clipPath>
</defs>
</svg>
