<svg width="24" height="24" viewBox="0 0 24 24" fill="none" xmlns="http://www.w3.org/2000/svg">
<g clip-path="url(#clip0_138_39)">
<path fill-rule="evenodd" clip-rule="evenodd" d="M11.3291 0.246738C11.7514 0.0355925 12.2485 0.0355925 12.6708 0.246738L22.2437 5.03321C23.3493 5.586 23.3493 7.16371 22.2437 7.71649L12.6708 12.503C12.2485 12.7141 11.7514 12.7141 11.3291 12.503L1.75618 7.71649C0.65061 7.16371 0.650608 5.586 1.75618 5.03321L11.3291 0.246738ZM12 1.58838L2.427 6.37485L12 11.1613L21.5729 6.37485L12 1.58838Z" fill="black"/>
<path fill-rule="evenodd" clip-rule="evenodd" d="M5.17077 9.78927C5.35601 10.1597 5.20584 10.6103 4.83536 10.7955L2.427 11.9997L1.75618 10.658L4.16454 9.45386C4.53502 9.26861 4.98553 9.41878 5.17077 9.78927ZM18.8291 9.78927C19.0144 9.41878 19.4649 9.26861 19.8354 9.45386L22.2437 10.658C23.3493 11.2108 23.3493 12.7885 22.2437 13.3413L12.6708 18.1278C12.2485 18.3389 11.7514 18.3389 11.3291 18.1278L1.75618 13.3413C0.650606 12.7885 0.650611 11.2108 1.75618 10.658L2.427 11.9997L12 16.7861L21.5729 11.9997L19.1645 10.7955C18.7941 10.6103 18.6439 10.1597 18.8291 9.78927Z" fill="black"/>
<path fill-rule="evenodd" clip-rule="evenodd" d="M5.17077 15.4143C5.35601 15.7847 5.20584 16.2353 4.83536 16.4205L2.427 17.6247L1.75618 16.283L4.16454 15.0789C4.53502 14.8936 4.98553 15.0438 5.17077 15.4143ZM18.8291 15.4143C19.0144 15.0438 19.4649 14.8936 19.8354 15.0789L22.2437 16.283C23.3493 16.8358 23.3493 18.4135 22.2437 18.9663L12.6708 23.7528C12.2485 23.9639 11.7514 23.9639 11.3291 23.7528L1.75618 18.9663C0.650606 18.4135 0.650611 16.8358 1.75618 16.283L2.427 17.6247L12 22.4111L21.5729 17.6247L19.1645 16.4205C18.7941 16.2353 18.6439 15.7847 18.8291 15.4143Z" fill="black"/>
</g>
<defs>
<clipPath id="clip0_138_39">
<rect width="24" height="24" fill="white"/>
</clipPath>
</defs>
</svg>
