<svg width="24" height="24" viewBox="0 0 24 24" fill="none" xmlns="http://www.w3.org/2000/svg">
<g clip-path="url(#clip0_138_23)">
<path fill-rule="evenodd" clip-rule="evenodd" d="M13.7204 2.86994C12.6874 2.14687 11.3126 2.14687 10.2796 2.86994L2.77961 8.11994C1.97763 8.68133 1.5 9.5987 1.5 10.5776V21.0002C1.5 21.371 1.66297 21.7448 1.98396 22.0337C2.30755 22.3249 2.76186 22.5002 3.25 22.5002H20.75C21.2381 22.5002 21.6924 22.3249 22.016 22.0337C22.337 21.7448 22.5 21.371 22.5 21.0002V10.5776C22.5 9.5987 22.0224 8.68133 21.2204 8.11994L13.7204 2.86994ZM9.41942 1.64109C10.9689 0.556485 13.0311 0.556484 14.5806 1.64109L22.0806 6.89109C23.2835 7.73317 24 9.10922 24 10.5776V21.0002C24 21.8229 23.6362 22.5936 23.0195 23.1486C22.4054 23.7013 21.5879 24.0002 20.75 24.0002H3.25C2.41206 24.0002 1.5946 23.7013 0.980509 23.1486C0.363816 22.5936 0 21.8229 0 21.0002V10.5776C0 9.10923 0.716449 7.73317 1.91942 6.89109L9.41942 1.64109Z" fill="black"/>
<path fill-rule="evenodd" clip-rule="evenodd" d="M7.5 12C7.5 11.5858 7.83579 11.25 8.25 11.25H15.75C16.1642 11.25 16.5 11.5858 16.5 12V23.25C16.5 23.6642 16.1642 24 15.75 24C15.3358 24 15 23.6642 15 23.25V12.75H9V23.25C9 23.6642 8.66421 24 8.25 24C7.83579 24 7.5 23.6642 7.5 23.25V12Z" fill="black"/>
</g>
<defs>
<clipPath id="clip0_138_23">
<rect width="24" height="24" fill="white"/>
</clipPath>
</defs>
</svg>
